<svg xmlns="http://www.w3.org/2000/svg" viewBox="0 0 460.73 350.24"><defs><style>.cls-1,.cls-10,.cls-13,.cls-25,.cls-27{fill:#fff;}.cls-1,.cls-11,.cls-12{stroke:#263238;}.cls-1,.cls-11,.cls-12,.cls-13,.cls-14,.cls-16,.cls-17,.cls-23,.cls-24,.cls-25{stroke-miterlimit:10;}.cls-2{fill:#eaeaea;}.cls-23,.cls-3{fill:#e0e0e0;}.cls-12,.cls-4{fill:#d880a6;}.cls-5{opacity:0.2;}.cls-6{fill:#263238;}.cls-7{fill:#f0f0f0;}.cls-8{fill:#4d5a64;}.cls-27,.cls-9{opacity:0.5;}.cls-11,.cls-14,.cls-16,.cls-17,.cls-24{fill:none;}.cls-13,.cls-14{stroke:#d880a6;}.cls-15{opacity:0.4;}.cls-16,.cls-23{stroke:#4d5a64;}.cls-17{stroke:#eaeaea;stroke-width:0.25px;}.cls-18{fill:#e7e6e6;}.cls-19{opacity:0.7;}.cls-20{fill:#717a27;}.cls-21{fill:#fafafa;}.cls-22{fill:#ffe8e7;}.cls-24,.cls-25{stroke:#e6e6e6;}.cls-26{opacity:0.3;}</style></defs><title>background</title><g id="katman_2" data-name="katman 2"><g id="Characters"><path class="cls-1" d="M153.79,117.28a5.34,5.34,0,0,1,3.37-1.28c2.09,0,2.79-1.66,4-3,2.75-3,5.2-4,5.81-2.32s-3.57,6.79-5.38,9.22,5.09,17.44,5.09,17.44-11.55,4.85-12.36,4.25-8.92-14.91-10.23-20.61-1.27-10.76-.54-11.19,11-3.29,12.93-3.07,3.51,7.69,3.51,7.69"/><path class="cls-1" d="M154.65,108.44s.46-10.09,2.44-10.84,2.29,4.1,2.41,6.9-.16,6.77-.11,7.68"/><polygon class="cls-2" points="172.8 79.56 127.13 82.56 119.91 22.13 172.71 19.74 172.8 79.56"/><path class="cls-3" d="M131.54,74.83c1.4,9.87,3.75,20.08,8.84,28.77,2.44,4.16,6.4,9.58,11.8,9.59,5,0,8.24-4.8,10.07-8.91,4-8.93,4.5-19.36,4.28-29a.75.75,0,0,0-1.5,0c.19,8.38-.26,17-2.88,25-1.55,4.73-4.95,12.47-11.23,11.2-5.46-1.1-8.9-7.64-11.07-12.19C136.13,91.56,134.2,83,133,74.44c-.14-1-1.58-.55-1.45.4Z"/><polygon class="cls-4" points="157.65 68.34 111.75 93.01 75.76 33.81 129.33 6.42 157.65 68.34"/><g class="cls-5"><polygon points="157.65 68.34 111.75 93.01 75.76 33.81 129.33 6.42 157.65 68.34"/></g><path class="cls-6" d="M112.69,82.75c5.68,8.91,12.31,17.53,20.66,24.11,4.6,3.62,11.53,8.25,17.77,6.32,5.8-1.79,7.15-8.48,7.18-13.8.06-11.3-4.42-22.51-9.27-32.51-.42-.87-1.71-.11-1.3.76,4.32,8.92,8.09,18.57,8.93,28.54.5,6-.15,15.41-7.92,15.91-6.29.4-12.64-4.65-17-8.54C124.71,97.35,119,89.84,114,82c-.52-.81-1.82-.06-1.3.76Z"/><polygon class="cls-4" points="147.72 77.64 118.69 107.1 77.53 70.64 111.73 37.32 147.72 77.64"/><path class="cls-7" d="M105.5,63.51s-2.54,21.39,5.13,22,4.56-11.56,4.56-11.56,9.68,3.59,11.8-2.13S105.5,63.51,105.5,63.51Z"/><path class="cls-8" d="M116.87,99.19c6.68,5.65,14,10.87,22.33,13.85,4.36,1.57,10.77,3.19,14.75-.18,3.61-3.05,2.81-8.43,1.51-12.41-2.73-8.37-8.59-15.64-14.5-22-.66-.71-1.72.35-1.06,1.06,4.84,5.21,9.39,10.86,12.47,17.32,2,4.26,5.07,12.2-.18,15.43-4.32,2.66-10.87.13-15-1.65-7.06-3-13.38-7.54-19.22-12.48-.73-.62-1.8.44-1.06,1.06Z"/><path class="cls-1" d="M147.3,106.35A1.73,1.73,0,0,0,147,106a1.92,1.92,0,0,0-2.5.2c-1.84,1.36-1,5.62.31,8s3.65,1.91,3.88-.73S147.3,106.35,147.3,106.35Z"/><path class="cls-1" d="M150.21,104.78s1.23.2,1.87,5-1.35,4.91-2,4.77-1.53-.56-2.08-2.21-1.59-6.41-.2-7.37A2.08,2.08,0,0,1,150.21,104.78Z"/><path class="cls-1" d="M151.56,104.53a2.41,2.41,0,0,1,3.29-.62c2,1.23,2,8.25.89,9.5s-2.83.34-3.24-.48S150.56,106.34,151.56,104.53Z"/><path class="cls-4" d="M213.09,158.22l-25.4,5.83L167.75,133.6l-16.85,6.53,4.92,42.12s7.05,22,20.93,20.48S213.09,158.22,213.09,158.22Z"/><g class="cls-9"><path class="cls-10" d="M213.09,158.22l-25.4,5.83L167.75,133.6l-16.85,6.53,4.92,42.12s7.05,22,20.93,20.48S213.09,158.22,213.09,158.22Z"/></g><line class="cls-11" x1="213.09" y1="158.22" x2="187.69" y2="164.06"/><path class="cls-12" d="M171.08,138.77l-19.48,6.95c-.52-4.4-.71-7.42-.71-7.42l16.14-5.8Z"/><line class="cls-11" x1="165.22" y1="133.05" x2="168.46" y2="139.71"/><line class="cls-11" x1="162.16" y1="134.26" x2="164.83" y2="141"/><line class="cls-11" x1="158.79" y1="135.46" x2="161.17" y2="142.31"/><line class="cls-11" x1="155.69" y1="136.65" x2="157.55" y2="143.6"/><line class="cls-11" x1="153.31" y1="137.44" x2="154.74" y2="144.6"/><polyline class="cls-11" points="190.68 168.63 167.03 132.5 150.9 138.3"/><ellipse class="cls-6" cx="166.22" cy="145.89" rx="2.24" ry="2.29"/><ellipse class="cls-6" cx="159.98" cy="155.77" rx="2.24" ry="2.29"/><ellipse class="cls-6" cx="159.53" cy="177.08" rx="2.24" ry="2.29"/><ellipse class="cls-6" cx="181.99" cy="170.27" rx="2.24" ry="2.29"/><ellipse class="cls-6" cx="173.73" cy="183.65" rx="2.24" ry="2.29"/><ellipse class="cls-6" cx="196.77" cy="167.63" rx="2.24" ry="2.29"/><ellipse class="cls-6" cx="175.26" cy="156.15" rx="2.24" ry="2.29"/><ellipse class="cls-6" cx="168.46" cy="166.33" rx="2.24" ry="2.29" transform="translate(-39.52 53.25) rotate(-16.1)"/><polygon class="cls-13" points="53.12 155.3 33.96 149.84 28.2 163.09 48.03 169.92 53.12 155.3"/><line class="cls-14" x1="52.33" y1="157.56" x2="32.62" y2="152.43"/><line class="cls-14" x1="51.16" y1="160.9" x2="31.45" y2="155.77"/><line class="cls-14" x1="50.42" y1="164.14" x2="30.5" y2="158.35"/><line class="cls-14" x1="49.27" y1="166.97" x2="29.2" y2="161.14"/><polygon class="cls-1" points="18.14 114.72 4.04 161.64 32.1 168.93 37.24 146.48 26.6 142.54 18.14 114.72"/><line class="cls-11" x1="25.71" y1="132" x2="18.41" y2="132.96"/><line class="cls-11" x1="26.77" y1="137.03" x2="19.47" y2="137.98"/><path class="cls-11" d="M26.76,140.58S35.29,130,38.12,133C42.68,137.84,26.76,140.58,26.76,140.58Z"/><line class="cls-11" x1="39.22" y1="141.38" x2="26.44" y2="140.84"/><circle class="cls-4" cx="22.35" cy="153.04" r="5.91" transform="translate(-130.95 132.56) rotate(-74.08)"/><path class="cls-4" d="M54.68,140.58,42,177.94l77.31,19.17,40.6,48L192.38,217s-32.74-42.1-42.83-47.07S54.68,140.58,54.68,140.58Z"/><g class="cls-15"><path d="M54.68,140.58,42,177.94l77.31,19.17,40.6,48L192.38,217s-32.74-42.1-42.83-47.07S54.68,140.58,54.68,140.58Z"/></g><polyline class="cls-11" points="54.68 140.58 41.95 177.94 119.26 197.12 159.86 245.15 192.38 216.99"/><line class="cls-11" x1="64.28" y1="143.36" x2="52.33" y2="180.52"/><path class="cls-4" d="M221.18,156.7c14.88,5,22.92,45-4.58,92.59l-48.07-37c14.33-33.06,38.32-60.35,52.66-55.55"/><g class="cls-9"><path class="cls-10" d="M221.18,156.7c14.88,5,22.92,45-4.58,92.59l-48.07-37c14.33-33.06,38.32-60.35,52.66-55.55"/></g><path class="cls-11" d="M168.61,211.89c14.33-33.06,38.23-60,52.58-55.18"/><ellipse class="cls-6" cx="205.83" cy="167.09" rx="2.24" ry="2.29"/><ellipse class="cls-6" cx="203.5" cy="179.38" rx="2.24" ry="2.29"/><ellipse class="cls-6" cx="190.62" cy="183.77" rx="2.24" ry="2.29"/><ellipse class="cls-6" cx="209.88" cy="189.43" rx="2.24" ry="2.29"/><ellipse class="cls-6" cx="192.47" cy="196.42" rx="2.24" ry="2.29"/><ellipse class="cls-6" cx="218.9" cy="199.81" rx="2.24" ry="2.29"/><ellipse class="cls-6" cx="208.75" cy="210.84" rx="2.24" ry="2.29"/><ellipse class="cls-6" cx="223.79" cy="211.89" rx="2.24" ry="2.29"/><ellipse class="cls-6" cx="214.31" cy="222.47" rx="2.24" ry="2.29"/><ellipse class="cls-6" cx="196.97" cy="225.19" rx="2.24" ry="2.29"/><ellipse class="cls-6" cx="193.32" cy="214.18" rx="2.24" ry="2.29"/><ellipse class="cls-6" cx="180.66" cy="202.11" rx="2.24" ry="2.29"/><ellipse class="cls-6" cx="178.98" cy="215.39" rx="2.24" ry="2.29"/><polygon class="cls-1" points="444.55 299.11 431.52 284.29 415.62 296.18 430.09 312.14 444.55 299.11"/><polygon class="cls-8" points="411.87 350.24 460.73 311.65 446.18 292.79 423.27 309.54 425.8 315.94 411.87 350.24"/><path class="cls-6" d="M416.38,327l8.29,4.33c.43.22.81-.42.38-.65l-8.29-4.33c-.43-.22-.81.42-.38.65Z"/><path class="cls-6" d="M418.94,321l8.29,4.33c.43.22.81-.42.38-.65l-8.29-4.33c-.43-.22-.81.42-.38.65Z"/><path class="cls-8" d="M421.63,316.66a59.26,59.26,0,0,1-7.07,1.57c-2,.32-12.61,1.5-9.6-3.58,2.43-4.09,13.48,1.25,16.58,2.7.43.2.82-.44.38-.65-3.26-1.52-16.36-7.74-17.91-1.6-1.93,7.64,14.77,3.16,17.82,2.29A.38.38,0,0,0,421.63,316.66Z"/><path class="cls-8" d="M409.15,307.44l12.91,9.86c.38.29.76-.36.38-.65l-12.91-9.86c-.38-.29-.76.36-.38.65Z"/><path class="cls-6" d="M440.48,284.34l-25,18.24s-56.57-51.43-79.64-143.43l57.74-.3S394.87,197,440.48,284.34Z"/><path class="cls-16" d="M335.84,159.15c23.07,92,79.64,143.43,79.64,143.43l25-18.24"/><path class="cls-1" d="M314.79,298.05a253.67,253.67,0,0,0-12,34.38L283.39,326s9.68-35.75,10.32-37.38S314.79,298.05,314.79,298.05Z"/><polygon class="cls-8" points="241.51 330.88 301.07 349.02 309.34 322.93 283.31 315.22 277.63 322.77 241.51 330.88"/><path class="cls-6" d="M263.14,321.33l1.17,9.28c.06.47.81.48.75,0l-1.17-9.28c-.06-.47-.81-.48-.75,0Z"/><path class="cls-6" d="M269.53,320l1.17,9.28c.06.47.81.48.75,0L270.28,320c-.06-.47-.81-.48-.75,0Z"/><path class="cls-8" d="M274.69,319.78a58.24,58.24,0,0,1-5.85-5.48,21.57,21.57,0,0,1-3.65-4.85c-.87-1.75-.83-4.64,1.88-4.55,3.19.11,4.71,6.15,5.41,8.48a57,57,0,0,1,1.59,6.76c.08.47.8.27.72-.2-.59-3.48-2.94-17.61-8.75-15.61-7.62,2.62,5.66,14,8.12,16C274.53,320.62,275.06,320.09,274.69,319.78Z"/><path class="cls-8" d="M275.12,304.22l-.74,16.23c0,.48.73.48.75,0l.74-16.23c0-.48-.73-.48-.75,0Z"/><path class="cls-6" d="M316,308.39l-31.65-8.16S306.55,205,333.63,151.75L391,165.29S345.85,227.81,316,308.39Z"/><path class="cls-16" d="M391,165.29s-45.15,62.52-75,143.1l-31.65-8.16"/><polygon class="cls-1" points="287.6 73.22 296.16 94.47 306.96 91.06 303.14 76.95 299.66 66.3 289.15 67.02 287.6 73.22"/><path class="cls-1" d="M284.79,59.36s-6.22-3.83-7.57-3-.51,2.38,1.31,3.87a35.22,35.22,0,0,0,4.64,3Z"/><rect class="cls-6" x="280.49" y="44.39" width="15.56" height="29.91" rx="2.36" ry="2.36" transform="translate(580.07 20.87) rotate(160.85)"/><rect class="cls-10" x="281.68" y="48.05" width="13.25" height="22.78" transform="translate(580.17 21.05) rotate(160.85)"/><rect class="cls-7" x="281.03" y="50.58" width="10.24" height="5.62" transform="translate(573.98 9.97) rotate(160.85)"/><rect class="cls-7" x="284.6" y="60.66" width="10.24" height="5.62" transform="translate(584.24 28.4) rotate(160.85)"/><rect class="cls-3" x="282.34" y="56.55" width="10.18" height="0.95" transform="translate(577.66 16.63) rotate(160.85)"/><rect class="cls-3" x="286.06" y="67.36" width="7.04" height="0.95" transform="translate(585.39 36.94) rotate(160.85)"/><rect class="cls-3" x="283.05" y="58.99" width="5.57" height="0.95" transform="translate(575.36 21.89) rotate(160.85)"/><circle class="cls-8" cx="282.08" cy="47.75" r="0.35" transform="translate(-0.06 95.17) rotate(-19.15)"/><path class="cls-8" d="M283.17,47.67,285,47a.28.28,0,0,0,.17-.36h0a.28.28,0,0,0-.36-.17l-1.87.65a.28.28,0,0,0-.17.36h0A.28.28,0,0,0,283.17,47.67Z"/><path class="cls-10" d="M301.09,93.14l8.71-3.3L303,70.7s-2.77-9.75-4.15-10.61-8.18-1.69-8.92-.48c-1.08,1.74,1.07,2.87,2.25,3.61a19.71,19.71,0,0,0,3,1.41s-1.8,4.34.3,10.93Z"/><path class="cls-11" d="M295.45,75.56c-2.1-6.59-.3-10.93-.3-10.93a19.71,19.71,0,0,1-3-1.41c-1.18-.74-3.31-1.81-2.4-3.31.73-1.21,7.71-.69,9.08.18S303,70.7,303,70.7l6.8,19.14-8.71,3.3"/><path class="cls-1" d="M284.14,67s2.69,1.81,2.45,3.21-3.63.16-4.93-.85-1.2-2.48-.52-2.92S284.14,67,284.14,67Z"/><path class="cls-1" d="M282,63.08s4,3.12,3.53,4.77-3.5,0-5-1.36-1.74-2.54-1.37-3.21A2.05,2.05,0,0,1,282,63.08Z"/><path class="cls-4" d="M309.79,83.32l12.82,16.16,33-31.65s4.77,24.25-3.75,48.84S318,141.52,308,132.83s-15.26-41.45-15.26-41.45Z"/><path class="cls-9" d="M309.79,83.32l12.82,16.16,33-31.65s4.77,24.25-3.75,48.84S318,141.52,308,132.83s-15.26-41.45-15.26-41.45Z"/><path class="cls-8" d="M314.89,89.75l-20.57,9.67c-1-4.76-1.56-8-1.56-8l17-8.06Z"/><path class="cls-17" d="M313.61,96.23h0a1.48,1.48,0,0,1,2,.47l2.43,3.88a1.48,1.48,0,0,1-.47,2h0a1.48,1.48,0,0,1-2-.47l-2.43-3.88A1.48,1.48,0,0,1,313.61,96.23Z"/><path class="cls-17" d="M301.78,99.11h0a1.48,1.48,0,0,1,2,.47l2.43,3.88a1.48,1.48,0,0,1-.47,2h0a1.48,1.48,0,0,1-2-.47l-2.43-3.88A1.48,1.48,0,0,1,301.78,99.11Z"/><path class="cls-17" d="M305,116.33h0a1.48,1.48,0,0,1,2,.47l2.43,3.88a1.48,1.48,0,0,1-.47,2h0a1.48,1.48,0,0,1-2-.47l-2.43-3.88A1.48,1.48,0,0,1,305,116.33Z"/><path class="cls-17" d="M315.59,119.25h0a1.48,1.48,0,0,1,2,.47L320,123.6a1.48,1.48,0,0,1-.47,2h0a1.48,1.48,0,0,1-2-.47l-2.43-3.88A1.48,1.48,0,0,1,315.59,119.25Z"/><path class="cls-17" d="M311.57,128.3h0a1.48,1.48,0,0,1,2,.47l2.43,3.88a1.48,1.48,0,0,1-.47,2h0a1.48,1.48,0,0,1-2-.47l-2.43-3.88A1.48,1.48,0,0,1,311.57,128.3Z"/><path class="cls-17" d="M322.87,108.24h0a1.48,1.48,0,0,1,2,.47l2.43,3.88a1.48,1.48,0,0,1-.47,2h0a1.48,1.48,0,0,1-2-.47l-2.43-3.88A1.48,1.48,0,0,1,322.87,108.24Z"/><path class="cls-17" d="M327.79,120.37h0a1.48,1.48,0,0,1,2,.47l2.43,3.88a1.48,1.48,0,0,1-.47,2h0a1.48,1.48,0,0,1-2-.47l-2.43-3.88A1.48,1.48,0,0,1,327.79,120.37Z"/><path class="cls-17" d="M331.69,96.32h0a1.48,1.48,0,0,1,.28,2.07L329.2,102a1.48,1.48,0,0,1-2.07.28h0a1.48,1.48,0,0,1-.28-2.07l2.77-3.64A1.48,1.48,0,0,1,331.69,96.32Z"/><path class="cls-17" d="M322.4,130h0a1.48,1.48,0,0,1,2,.47l2.43,3.88a1.48,1.48,0,0,1-.47,2h0a1.48,1.48,0,0,1-2-.47L321.94,132A1.48,1.48,0,0,1,322.4,130Z"/><path class="cls-17" d="M311.57,106.32h0a1.48,1.48,0,0,1,2,.47l2.43,3.88a1.48,1.48,0,0,1-.47,2h0a1.48,1.48,0,0,1-2-.47l-2.43-3.88A1.48,1.48,0,0,1,311.57,106.32Z"/><line class="cls-11" x1="355.65" y1="67.83" x2="322.27" y2="99.81"/><polyline class="cls-11" points="327.09 105.12 309.8 83.32 292.76 91.38"/><path class="cls-4" d="M361.47,63.23c19,0,34.38,40.36,34.38,90.14V163H327.09v-9.63C327.09,103.58,342.48,63.23,361.47,63.23Z"/><path class="cls-9" d="M361.47,63.23c19,0,34.38,40.36,34.38,90.14V163H327.09v-9.63C327.09,103.58,342.48,63.23,361.47,63.23Z"/><path class="cls-17" d="M349.69,77.39h0A1.48,1.48,0,0,1,351,79l-.5,4.55a1.48,1.48,0,0,1-1.63,1.31h0a1.48,1.48,0,0,1-1.31-1.63l.5-4.55A1.48,1.48,0,0,1,349.69,77.39Z"/><path class="cls-17" d="M354.91,89h0a1.48,1.48,0,0,1,1.31,1.63l-.5,4.55a1.48,1.48,0,0,1-1.63,1.31h0a1.48,1.48,0,0,1-1.31-1.63l.5-4.55A1.48,1.48,0,0,1,354.91,89Z"/><path class="cls-17" d="M342.86,94.12h0a1.48,1.48,0,0,1,1.31,1.63l-.5,4.55a1.48,1.48,0,0,1-1.63,1.31h0a1.48,1.48,0,0,1-1.31-1.63l.5-4.55A1.48,1.48,0,0,1,342.86,94.12Z"/><path class="cls-17" d="M368.13,95.55h0a1.48,1.48,0,0,1,1.42,1.53l-.17,4.57a1.48,1.48,0,0,1-1.53,1.42h0a1.48,1.48,0,0,1-1.42-1.53L366.6,97A1.48,1.48,0,0,1,368.13,95.55Z"/><path class="cls-17" d="M378.56,102.84h0a1.48,1.48,0,0,1,1.42,1.53l-.17,4.57a1.48,1.48,0,0,1-1.53,1.42h0a1.48,1.48,0,0,1-1.42-1.53l.17-4.57A1.48,1.48,0,0,1,378.56,102.84Z"/><path class="cls-17" d="M369.11,112.93h0a1.48,1.48,0,0,1,1.42,1.53l-.17,4.57a1.48,1.48,0,0,1-1.53,1.42h0a1.48,1.48,0,0,1-1.42-1.53l.17-4.57A1.48,1.48,0,0,1,369.11,112.93Z"/><path class="cls-17" d="M355.79,108.84h0a1.48,1.48,0,0,1,1.42,1.53l-.17,4.57a1.48,1.48,0,0,1-1.53,1.42h0a1.48,1.48,0,0,1-1.42-1.53l.17-4.57A1.48,1.48,0,0,1,355.79,108.84Z"/><path class="cls-17" d="M342.59,113.65h0a1.48,1.48,0,0,1,1.42,1.53l-.17,4.57a1.48,1.48,0,0,1-1.53,1.42h0a1.48,1.48,0,0,1-1.42-1.53l.17-4.57A1.48,1.48,0,0,1,342.59,113.65Z"/><path class="cls-17" d="M385.46,113.65h0a1.48,1.48,0,0,1,1.42,1.53l-.17,4.57a1.48,1.48,0,0,1-1.53,1.42h0a1.48,1.48,0,0,1-1.42-1.53l.17-4.57A1.48,1.48,0,0,1,385.46,113.65Z"/><path class="cls-17" d="M377.41,124.31h0a1.48,1.48,0,0,1,1.42,1.53l-.17,4.57a1.48,1.48,0,0,1-1.53,1.42h0a1.48,1.48,0,0,1-1.42-1.53l.17-4.57A1.48,1.48,0,0,1,377.41,124.31Z"/><path class="cls-17" d="M360.61,123.07h0A1.48,1.48,0,0,1,362,124.6l-.17,4.57a1.48,1.48,0,0,1-1.53,1.42h0a1.48,1.48,0,0,1-1.42-1.53l.17-4.57A1.48,1.48,0,0,1,360.61,123.07Z"/><path class="cls-17" d="M349.58,131.72h0a1.48,1.48,0,0,1,1.42,1.53l-.17,4.57a1.48,1.48,0,0,1-1.53,1.42h0a1.48,1.48,0,0,1-1.42-1.53l.17-4.57A1.48,1.48,0,0,1,349.58,131.72Z"/><path class="cls-17" d="M337.54,139.91h0a1.48,1.48,0,0,1,1.42,1.53l-.17,4.57a1.48,1.48,0,0,1-1.53,1.42h0a1.48,1.48,0,0,1-1.42-1.53l.17-4.57A1.48,1.48,0,0,1,337.54,139.91Z"/><path class="cls-17" d="M359.05,143.67h0a1.48,1.48,0,0,1,1.42,1.53l-.17,4.57a1.48,1.48,0,0,1-1.53,1.42h0a1.48,1.48,0,0,1-1.42-1.53l.17-4.57A1.48,1.48,0,0,1,359.05,143.67Z"/><path class="cls-17" d="M370.34,138.62h0a1.48,1.48,0,0,1,1.42,1.53l-.17,4.57a1.48,1.48,0,0,1-1.53,1.42h0a1.48,1.48,0,0,1-1.42-1.53l.17-4.57A1.48,1.48,0,0,1,370.34,138.62Z"/><path class="cls-17" d="M388.59,143.67h0A1.48,1.48,0,0,1,390,145.2l-.17,4.57a1.48,1.48,0,0,1-1.53,1.42h0a1.48,1.48,0,0,1-1.42-1.53l.17-4.57A1.48,1.48,0,0,1,388.59,143.67Z"/><path class="cls-17" d="M333.07,150.67h0a1.48,1.48,0,0,1,1.42,1.53l-.17,4.57a1.48,1.48,0,0,1-1.53,1.42h0a1.48,1.48,0,0,1-1.42-1.53l.17-4.57A1.48,1.48,0,0,1,333.07,150.67Z"/><path class="cls-17" d="M377.41,149.71h0a1.48,1.48,0,0,1,1.42,1.53l-.17,4.57a1.48,1.48,0,0,1-1.53,1.42h0a1.48,1.48,0,0,1-1.42-1.53l.17-4.57A1.48,1.48,0,0,1,377.41,149.71Z"/><path class="cls-17" d="M334,122.05h0a1.48,1.48,0,0,1,1.42,1.53l-.17,4.57a1.48,1.48,0,0,1-1.53,1.42h0A1.48,1.48,0,0,1,332.3,128l.17-4.57A1.48,1.48,0,0,1,334,122.05Z"/><rect class="cls-8" x="327.09" y="154.43" width="68.75" height="8.57"/><path class="cls-11" d="M395.84,163H327.09v-9.63c0-49.78,15.39-90.14,34.38-90.14"/><path class="cls-4" d="M324.4,122.44l43-4.68L351.62,69.16l7.62-6.45s15.1,1.38,34.65,21.71,23.5,49.53,9.85,61.39C381.31,165.29,344,156,321.26,143.67Z"/><path class="cls-6" d="M358.17,89.91l9.24,27.85S362,101.61,358.17,89.91Z"/><path class="cls-9" d="M324.4,122.44l43-4.68L351.62,69.16l7.62-6.45s15.1,1.38,34.65,21.71,23.5,49.53,9.85,61.39C381.31,165.29,344,156,321.26,143.67Z"/><path class="cls-17" d="M359.94,75.42h0a1.48,1.48,0,0,1,1.95.75l1.86,4.18A1.48,1.48,0,0,1,363,82.3h0a1.48,1.48,0,0,1-1.95-.75l-1.86-4.18A1.48,1.48,0,0,1,359.94,75.42Z"/><path class="cls-17" d="M371.41,87.11h0a1.48,1.48,0,0,1,1.95.75L375.22,92a1.48,1.48,0,0,1-.75,1.95h0a1.48,1.48,0,0,1-1.95-.75l-1.86-4.18A1.48,1.48,0,0,1,371.41,87.11Z"/><path class="cls-17" d="M382.22,104.57h0a1.48,1.48,0,0,1,1.95.75L386,109.5a1.48,1.48,0,0,1-.75,1.95h0a1.48,1.48,0,0,1-1.95-.75l-1.86-4.18A1.48,1.48,0,0,1,382.22,104.57Z"/><path class="cls-17" d="M400.63,108h0a1.48,1.48,0,0,1,1.95.75l1.86,4.18a1.48,1.48,0,0,1-.75,1.95h0a1.48,1.48,0,0,1-1.95-.75l-1.86-4.18A1.48,1.48,0,0,1,400.63,108Z"/><path class="cls-17" d="M336.5,125.87h0a1.48,1.48,0,0,1,1.45-1.5l4.58-.07a1.48,1.48,0,0,1,1.5,1.45h0a1.48,1.48,0,0,1-1.45,1.5l-4.58.07A1.48,1.48,0,0,1,336.5,125.87Z"/><path class="cls-17" d="M347.24,136h0a1.48,1.48,0,0,1,1.55-1.4l4.57.24a1.48,1.48,0,0,1,1.4,1.55h0a1.48,1.48,0,0,1-1.55,1.4l-4.57-.24A1.48,1.48,0,0,1,347.24,136Z"/><path class="cls-17" d="M371.94,137.13h0a1.48,1.48,0,0,1,1.41-1.54l4.57-.21a1.48,1.48,0,0,1,1.54,1.41h0a1.48,1.48,0,0,1-1.41,1.54l-4.57.21A1.48,1.48,0,0,1,371.94,137.13Z"/><path class="cls-17" d="M387.43,147.32h0a1.48,1.48,0,0,1,.94-1.86l4.35-1.43a1.48,1.48,0,0,1,1.86.94h0a1.48,1.48,0,0,1-.94,1.86l-4.35,1.43A1.48,1.48,0,0,1,387.43,147.32Z"/><path class="cls-17" d="M393.51,130.75h0a1.48,1.48,0,0,1,.94-1.86l4.35-1.43a1.48,1.48,0,0,1,1.86.94h0a1.48,1.48,0,0,1-.94,1.86l-4.35,1.43A1.48,1.48,0,0,1,393.51,130.75Z"/><path class="cls-17" d="M378.84,124.77h0a1.48,1.48,0,0,1,.92-1.87l4.33-1.48a1.48,1.48,0,0,1,1.87.92h0a1.48,1.48,0,0,1-.92,1.87l-4.33,1.48A1.48,1.48,0,0,1,378.84,124.77Z"/><path class="cls-17" d="M358.28,148.5h0a1.48,1.48,0,0,1,1.6-1.34l4.56.39a1.48,1.48,0,0,1,1.34,1.6h0a1.48,1.48,0,0,1-1.6,1.34l-4.56-.39A1.48,1.48,0,0,1,358.28,148.5Z"/><path class="cls-17" d="M336.59,144.45h0a1.48,1.48,0,0,1,1.76-1.12l4.47,1a1.48,1.48,0,0,1,1.12,1.76h0a1.48,1.48,0,0,1-1.76,1.12l-4.47-1A1.48,1.48,0,0,1,336.59,144.45Z"/><path class="cls-17" d="M327.05,134.21h0a1.48,1.48,0,0,1,1.61-1.33l4.56.42a1.48,1.48,0,0,1,1.33,1.61h0a1.48,1.48,0,0,1-1.61,1.33l-4.56-.42A1.48,1.48,0,0,1,327.05,134.21Z"/><path class="cls-17" d="M362,123.82h0a1.48,1.48,0,0,1,1.37-1.57l4.57-.32a1.48,1.48,0,0,1,1.57,1.37h0a1.48,1.48,0,0,1-1.37,1.57l-4.57.32A1.48,1.48,0,0,1,362,123.82Z"/><path class="cls-17" d="M389,88.68h0a1.48,1.48,0,0,1,2,.58l2.21,4a1.48,1.48,0,0,1-.58,2h0a1.48,1.48,0,0,1-2-.58l-2.21-4A1.48,1.48,0,0,1,389,88.68Z"/><path class="cls-17" d="M366.31,100.23h0a1.48,1.48,0,0,1,1.84,1l1.33,4.38a1.48,1.48,0,0,1-1,1.84h0a1.48,1.48,0,0,1-1.84-1l-1.33-4.38A1.48,1.48,0,0,1,366.31,100.23Z"/><path class="cls-17" d="M374.85,74.19h0a1.48,1.48,0,0,1,2,.47l2.43,3.88a1.48,1.48,0,0,1-.47,2h0a1.48,1.48,0,0,1-2-.47l-2.43-3.88A1.48,1.48,0,0,1,374.85,74.19Z"/><path class="cls-1" d="M331.37,127.78s-31.4-10.12-35.53-10-10.4,4.29-10.4,4.29-5.07,8.54-.89,13.53c2.24,2.66,2.42-5.81,2.42-5.81l7.28,1s3.13,4.19,10.17,6.14,25,5.43,25,5.43Z"/><path class="cls-8" d="M324.4,122.44l9.23-1c-.73,4.56-2.92,20-3.83,26.41-3-1.32-5.89-2.72-8.55-4.17Z"/><path class="cls-11" d="M359.24,62.71s15.1,1.38,34.65,21.71,23.5,49.53,9.85,61.39C381.31,165.29,344,156,321.26,143.67l3.14-21.23,46.13-5"/><path class="cls-11" d="M367.41,117.76s-5.38-16.14-9.24-27.85"/><path class="cls-1" d="M349,17.55h8c5.32,0,9.67,5,9.67,11V41c0,.35,0,.69,0,1a4.93,4.93,0,0,1,.14,1.14V58.66a5,5,0,0,1-5,5h-3.17a5,5,0,0,1-5-5V52H349c-5.32,0-9.67-5-9.67-11V28.57C339.35,22.51,343.7,17.55,349,17.55Z"/><path class="cls-6" d="M365.74,34.75s-1.81-10.45-2.3-8.91c-.69,2.2-.61,14.39-3,15.46-3.13,1.42-4.28-3.94-10.58-4.15S340,40,339.35,42.57,342,48.69,344,50.34c2.48,2.07,9.68,1.64,9.68,1.64s6.24.38,8.85-3.3S365.74,34.75,365.74,34.75Z"/><circle class="cls-6" cx="353.56" cy="32.62" r="1.8"/><circle class="cls-6" cx="342.01" cy="32.35" r="1.54"/><path class="cls-18" d="M345.27,39.73s.91,2.64,2.82,2.82,3.42-1.94,3.52-3.6Z"/><path class="cls-6" d="M344.74,39.88c.51,1.43,1.6,3,3.21,3.21,2.35.31,4-2.06,4.23-4.14a.56.56,0,0,0-.56-.56l-6.34.78c-.7.09-.71,1.2,0,1.12l6.34-.78-.56-.56c-.18,1.63-1.9,3.89-3.71,2.75a4.21,4.21,0,0,1-1.54-2.13C345.57,38.91,344.49,39.2,344.74,39.88Z"/><polygon class="cls-4" points="347.3 30.82 347.67 36.96 344.74 35.17 347.3 30.82"/><path class="cls-6" d="M364.6,37l-1.48-9.71s-26.88,3.37-35.59-9.69S328-.67,332.4.07,342,7.16,342,7.16s-4.12-5.61,0-6.5,8.68,3.4,11.05,7.83c0,0,17.72-1.65,23.71,9.07S377.91,35.88,367,47l-1-6.19Z"/><rect class="cls-8" x="348.56" y="57.48" width="23.82" height="12" rx="4.74" ry="4.74" transform="translate(720.94 126.95) rotate(-180)"/><ellipse class="cls-10" cx="370.4" cy="37.16" rx="6.37" ry="6.32"/><path class="cls-6" d="M367.37,38a4.06,4.06,0,0,1,.3-1.76c.59-1.42,2-1.77,3.41-1.64.53,0,.53-.78,0-.83a3.85,3.85,0,0,0-4,1.82,4.76,4.76,0,0,0-.52,2.4c0,.53.86.53.83,0Z"/><path class="cls-11" d="M365.06,40.6a6.28,6.28,0,0,1,.9-8"/><path class="cls-11" d="M366,32.64a6.32,6.32,0,1,1,1.44,10.1,6,6,0,0,1-1.15-.79"/><path class="cls-4" d="M213.09,241.18s-74.26-76.5-91.23-73.06c-1.24.25-4.59,2.17-9.26,5.15L108,193.94,119,209.62s43.4,66.47,64.3,58,27.65-22.75,27.65-22.75"/><path class="cls-15" d="M213.09,241.18s-74.26-76.5-91.23-73.06c-1.24.25-4.59,2.17-9.26,5.15L108,193.94,119,209.62s43.4,66.47,64.3,58,27.65-22.75,27.65-22.75"/><path class="cls-11" d="M108,193.94,119,209.62s43.4,66.47,64.3,58,27.65-22.75,27.65-22.75"/><rect class="cls-4" x="82.16" y="230.54" width="47.87" height="56.68" transform="translate(212.19 517.77) rotate(-180)"/><g class="cls-5"><rect x="82.16" y="230.54" width="47.87" height="56.68" transform="translate(212.19 517.77) rotate(-180)"/></g><rect class="cls-4" x="82.16" y="250.89" width="47.87" height="15.43" transform="translate(212.19 517.21) rotate(-180)"/><circle class="cls-4" cx="106.09" cy="258.89" r="13.16"/><circle class="cls-4" cx="106.09" cy="258.89" r="10.5"/><g class="cls-19"><circle class="cls-10" cx="106.09" cy="258.89" r="10.5"/></g><path class="cls-4" d="M109.07,256.37s2.32-3.82,3.39-3.59,1.41,6.69.85,6.34S109.07,256.37,109.07,256.37Z"/><path class="cls-4" d="M103.19,256.37s-2.32-3.82-3.39-3.59-1.41,6.69-.85,6.34S103.19,256.37,103.19,256.37Z"/><ellipse class="cls-4" cx="106.09" cy="260.33" rx="8.01" ry="6.52"/><ellipse class="cls-6" cx="101.44" cy="258.47" rx="0.51" ry="0.55"/><ellipse class="cls-6" cx="103.57" cy="259.66" rx="0.19" ry="0.2"/><ellipse class="cls-6" cx="103.54" cy="260.43" rx="0.19" ry="0.2"/><ellipse class="cls-6" cx="102.97" cy="259.98" rx="0.19" ry="0.2"/><ellipse class="cls-6" cx="108.29" cy="259.85" rx="0.19" ry="0.2"/><ellipse class="cls-6" cx="108.32" cy="260.62" rx="0.19" ry="0.2"/><ellipse class="cls-6" cx="108.88" cy="260.17" rx="0.19" ry="0.2"/><ellipse class="cls-6" cx="110.9" cy="258.59" rx="0.51" ry="0.55"/><path class="cls-6" d="M106.72,261.16c.12.67,0,2.15-.89,2.15s-1-1.48-.89-2.15c0-.17.27-.1.24.07-.09.48-.07,1.82.66,1.82s.75-1.33.66-1.82c0-.16.21-.24.24-.07Z"/><path class="cls-6" d="M105.08,259.3a.76.76,0,0,1,1.47,0c0,.28-.27.5-.61.54v1a.12.12,0,1,1-.25,0v-1C105.35,259.8,105.08,259.58,105.08,259.3Z"/><path class="cls-2" d="M173.5,273.43s4.56-2.19,5.81-5.46.76-5.94-.38-6.75-3.42-2.87-3.12-4,1.32-3.31.63-5.38-2.29-2.48-3.18-2.22-2.92,1.31-3.18,1,.45-1.53.23-3.12-.71-4.53-3.48-5.66-3.48-.76-4.51,0a1.72,1.72,0,0,1-2.77-.72c-.6-1.24-2.81-5.26-4.29-5.74s-3.75.6-4.4,1.19-2.94.54-4.29.05-6.26-1.83-8.63-.71-2.66,2.46-2.89,4.19.21,3.08-1.34,4-3.15.76-4,2.53a9.26,9.26,0,0,0-.76,3.69Z"/><path class="cls-8" d="M133.86,242.33a11.18,11.18,0,0,1,.84-3.78c1.43-3.62,5.09-4.63,10.56-2.94l1.06.33c2.51.8,2.51.8,5.11-.28l1.22-.5c3.84-1.56,5.57,2,6.71,4.42a12.79,12.79,0,0,0,.9,1.69c.45.62.67.54,1.56.09a4.68,4.68,0,0,1,3.57-.58c3.22.82,6.16,4,5.42,7.45a5.43,5.43,0,0,0-.2,1.65,4.49,4.49,0,0,0,1.35-.45l.91-.37a2.72,2.72,0,0,1,2.89.71,5.34,5.34,0,0,1,1.34,5.46c-.81,2.16-.81,2.16.62,3.76l.78.89c2.39,2.77,3.12,5.22.09,10.18-1.53,2.5-3.3,3.26-4.73,3.39-.13-.25-.29-.54-.48-.84,1.23,0,2.92-.57,4.42-3,2.79-4.57,2.22-6.6,0-9.16l-.77-.87c-1.61-1.8-1.76-2.09-.8-4.65a4.46,4.46,0,0,0-1.1-4.51,1.79,1.79,0,0,0-1.89-.5l-.89.36c-1.06.45-1.75.74-2.28.32s-.49-1.05-.17-2.56c.63-2.94-1.93-5.66-4.71-6.37a3.8,3.8,0,0,0-2.92.51c-.81.41-1.82.93-2.77-.4a13,13,0,0,1-1-1.83c-1.4-2.93-2.7-5.07-5.49-3.94l-1.21.5c-2.85,1.18-3,1.19-5.75.3l-1.05-.33c-5-1.55-8.21-.73-9.47,2.45a10.3,10.3,0,0,0-.78,3.52c-.07,1.16-.18,1.78-1.77,2.2a5,5,0,0,0-3.07,2.31,3.18,3.18,0,0,0-.3.88,5.84,5.84,0,0,0-.76,0h-.17a4,4,0,0,1,.41-1.27,5.75,5.75,0,0,1,3.6-2.73C133.78,243.49,133.79,243.34,133.86,242.33Z"/><path class="cls-20" d="M135,249.94c1.89-3,4.95-7.25,9.18-7.73a29.65,29.65,0,0,1,15.63,2.94,12.79,12.79,0,0,1,2.83,2c6.71,6.49,9.41,11.83,8,15.87a15.62,15.62,0,0,0-1.16,5.87,5.74,5.74,0,0,0-.93-.44,17.92,17.92,0,0,1,1.22-5.74c1.27-3.69-1.35-8.72-7.79-14.95-3.64-3.52-12.24-5.29-17.68-4.67-3.84.43-6.74,4.45-8.55,7.35l-.33-.23Z"/><path class="cls-10" d="M137.51,243.39c4.14-3.66,11.69-5.17,21.33,0S172,254.79,172.1,262a10,10,0,0,1-2.25,7,6.82,6.82,0,0,0-3.9-.8c-2.51.42-4.15,1.35-5.83,0s-5.15-4.43-7.45-5.25-4.23-1.47-6.23-.62-3.35,1.76-3.59,1.21-1.48-6-2.5-8.23-3.21-4.85-4.89-5.43a20.4,20.4,0,0,1-2.39-1A23,23,0,0,1,137.51,243.39Z"/><path class="cls-8" d="M166.7,262.72l.18-.14.06,0,0,0a.67.67,0,0,1,.33-.1.47.47,0,0,1,.23,0,.73.73,0,0,1,.35.1,1.4,1.4,0,0,1,.28.18l.07.06a1.63,1.63,0,0,1,.2.24,1.58,1.58,0,0,1,.14.29,1.94,1.94,0,0,1,.06.3.5.5,0,0,1,0,.09,1.81,1.81,0,0,1,0,.31,1.7,1.7,0,0,1-.1.3l0,0,0,.08,0,0-.08.12-.09.12a.64.64,0,0,1-.29.18.68.68,0,0,1-.33.07.71.71,0,0,1-.13,0,.91.91,0,0,1-.45-.1,1.47,1.47,0,0,1-.5-.46,1.78,1.78,0,0,1-.14-.29,1.54,1.54,0,0,1-.08-.33.54.54,0,0,1,0-.12,1.49,1.49,0,0,1,0-.33,1.31,1.31,0,0,1,.12-.31,2,2,0,0,1,.17-.23Z"/><path class="cls-8" d="M166.36,257.41a3,3,0,0,1-.17-.34,1.1,1.1,0,0,1-.05-.15v0l-.07-.17a.65.65,0,0,1,0-.34.61.61,0,0,1,0-.12,1.66,1.66,0,0,1,0-.38,2.75,2.75,0,0,1,.13-.35l.08-.14a.83.83,0,0,1,.32-.33.67.67,0,0,1,.33-.1.71.71,0,0,1,.35,0,1,1,0,0,1,.43.23l.17.16a2.88,2.88,0,0,1,.28.35,3,3,0,0,1,.2.39,1.37,1.37,0,0,1,.07.21,2.09,2.09,0,0,1,.09.64,2.47,2.47,0,0,1,0,.42,2.39,2.39,0,0,1-.15.42.85.85,0,0,1-.76.44,1,1,0,0,1-.82-.44l-.07-.1A.86.86,0,0,1,166.36,257.41Z"/><path class="cls-8" d="M163.39,258.5a.71.71,0,0,1,.35,0,1,1,0,0,1,.43.23,2.92,2.92,0,0,1,.25.31,2.61,2.61,0,0,1,.18.34,2,2,0,0,1,.14.52,1.9,1.9,0,0,1,0,.53,1.77,1.77,0,0,1-.16.52.82.82,0,0,1-.32.33.9.9,0,0,1-.44.12A1,1,0,0,1,163,261a1.52,1.52,0,0,1-.13-.25l0-.06v0l0,0a2.67,2.67,0,0,1-.15-.31.87.87,0,0,1,0-.12,2.61,2.61,0,0,1-.06-.34.87.87,0,0,1,0-.12,2.57,2.57,0,0,1,0-.34.77.77,0,0,1,0-.12,2.38,2.38,0,0,1,.13-.33.83.83,0,0,1,.32-.33A.67.67,0,0,1,163.39,258.5Z"/><path class="cls-8" d="M142.32,251.39a2,2,0,0,1,.83-.51l.23,0a.72.72,0,0,1,.35.07.49.49,0,0,1,.22.12.72.72,0,0,1,.25.25,2.23,2.23,0,0,1,.13.27l0,.07a1.36,1.36,0,0,1,.06.36s0,0,0,.07a.7.7,0,0,1,0,.09,1.26,1.26,0,0,1-.13.56,1.17,1.17,0,0,1-.22.31,1.42,1.42,0,0,1-.29.23,1.41,1.41,0,0,1-.71.2,1.19,1.19,0,0,1-.37-.05,1.44,1.44,0,0,1-.56-.3.89.89,0,0,1-.28-.84,2.7,2.7,0,0,1,.11-.33l.06-.12.07-.11A2.81,2.81,0,0,1,142.32,251.39Z"/><path class="cls-8" d="M139.75,247.88a.64.64,0,0,1,.29-.18.69.69,0,0,1,.33-.07.72.72,0,0,1,.35.07.75.75,0,0,1,.32.19l.15.18a.9.9,0,0,1,.14.43l0,.23a.82.82,0,0,1-.22.41l-.22.22a.64.64,0,0,1-.29.18.68.68,0,0,1-.33.07.72.72,0,0,1-.35-.07.75.75,0,0,1-.32-.19l-.15-.18a.9.9,0,0,1-.14-.43l0-.23a.82.82,0,0,1,.22-.41Z"/><path class="cls-8" d="M144.2,247.15l.05,0,.05,0a.64.64,0,0,1,.27-.17.68.68,0,0,1,.33-.07.72.72,0,0,1,.35.07.74.74,0,0,1,.32.19l.15.18a.9.9,0,0,1,.14.43v.06a.84.84,0,0,1,0,.29.82.82,0,0,1-.22.41l-.29.36a.64.64,0,0,1-.29.18.68.68,0,0,1-.33.07.72.72,0,0,1-.35-.07.75.75,0,0,1-.32-.19l-.15-.18a.89.89,0,0,1-.06-.18.7.7,0,0,1-.12-.21l0-.22a.83.83,0,0,1,.1-.45l0-.06a1.59,1.59,0,0,1,.17-.22A1.52,1.52,0,0,1,144.2,247.15Z"/><path class="cls-8" d="M147.4,243.52l0,0h0c-.56,1-2.19.09-1.63-.88l0,0C146.33,241.68,148,242.55,147.4,243.52Z"/><path class="cls-8" d="M139.43,243.94a.82.82,0,0,0-.1.45l0,.22a.94.94,0,0,0,.25.39l.2.14a.73.73,0,0,0,.35.1.7.7,0,0,0,.35,0,.64.64,0,0,0,.11-.06h.14a1.12,1.12,0,0,0,.59-.16,1.43,1.43,0,0,0,.21-.18l.12-.1a.86.86,0,0,0,.09-.11.73.73,0,0,0,.08-.11.93.93,0,0,0,.1-.49.9.9,0,0,0-.14-.43l-.15-.18a1,1,0,0,0-.43-.23l-.24,0-.08,0-.17,0a1,1,0,0,0-.48.13l-.18.14h0v0a.91.91,0,0,0-.27.1A1,1,0,0,0,139.43,243.94Zm.77-.18a.61.61,0,0,0,0,.27v-.18Zm0-.11,0,0,0,0Zm.76,1.25h0l0-.05Z"/><path class="cls-8" d="M148.89,249.84a.9.9,0,0,1,.44-.12l.33,0a.72.72,0,0,1,.35.07.74.74,0,0,1,.32.19.71.71,0,0,1,.2.29.68.68,0,0,1,.09.33l0,.23a.82.82,0,0,1-.22.41l-.18.14a.9.9,0,0,1-.44.12l-.33,0a.72.72,0,0,1-.35-.07.74.74,0,0,1-.32-.19.71.71,0,0,1-.2-.29.67.67,0,0,1-.09-.33l0-.23a.82.82,0,0,1,.22-.41Z"/><path class="cls-21" d="M166.17,276.34s.16,1.49.17,2.09a5.16,5.16,0,0,0,2.72,3.26c1.62.71,6,.67,6.41-2.3s-3-8.35-4.94-9.65a9.78,9.78,0,0,0-6.86-1.23,6.54,6.54,0,0,1-5.93-2.19c-1.43-1.67-5.06-3.47-7.1-4s-3.44-.55-4.75.3-3,2-3,2-.91-4.61-1.89-7.6-3.59-6.86-7.72-8.25-7.11-1.66-8.25.88-1.9,4.9.69,7,7,1.51,9.34,2.93,2.35,2.27,2.24,4.33-.85,5.67,1.53,7.15,5.53,3.55,6.62,5.18,2.33,2.59,1.9,4.74,1.44.92,1.83-.2.23-3.9-1.15-5.17-3.91-4.26-3.91-4.26l-.35-.83a34.85,34.85,0,0,0,7.12-.91c2.52-.78,3.75-.51,4.67.48s.22,4,2,5.11,2.85,1.48,4.68.88S166,275.07,166.17,276.34Z"/><path class="cls-3" d="M170.1,281.86s-2.3,5.43-10.72,6.44-13.07.11-16.75-2.91,2.64-2.68,3.77-3.19,2.52-.68,2.8-3.12-1.2-3.2-3-5.39-3.19-3.06-2.43-3.07a22.88,22.88,0,0,0,5.57-.6c2.36-.62,4.14-2,5.47-.24s1,3.67,2.43,5,2,2.42,5,1.39,3.85-1.69,4,.18S168,281.78,170.1,281.86Z"/><path class="cls-8" d="M143.3,269.84a8.66,8.66,0,0,0,5.83-.24c2.36-.88,4.46-1,5.82-.23l.17.1a3.39,3.39,0,0,1,1.55,2.74,4.15,4.15,0,0,0,1.94,3.24,3.53,3.53,0,0,0,3,.43c1.46-.53,3.11-1.15,4.25-.47a2.45,2.45,0,0,1,1.08,1.87l0,.13-.05.11c0,.07-.8,1.79,1.63,3.24a5.09,5.09,0,0,0,4.67.4,2.86,2.86,0,0,0,1.69-2.54c.18-3.07-3-8.86-6.93-9.68a9.74,9.74,0,0,0-3.84,0,5.84,5.84,0,0,1-5.88-1.63c-3.36-3.12-8.17-5.94-11.62-4.51a14.25,14.25,0,0,0-4,2.33c0-.4,0-.82,0-1.2a17.54,17.54,0,0,1,3.57-1.94c4.86-2,10.9,3.09,12.63,4.7,2,1.87,3.3,1.67,5.07,1.38a10.66,10.66,0,0,1,4.18,0c4.53.94,7.9,7.11,7.7,10.63a3.69,3.69,0,0,1-2.17,3.24,6.07,6.07,0,0,1-5.55-.45c-2.75-1.64-2.26-3.71-2.07-4.26a1.49,1.49,0,0,0-.6-1.1c-.71-.47-2.24.11-3.44.55a4.42,4.42,0,0,1-3.82-.52,5.14,5.14,0,0,1-2.38-3.94,2.51,2.51,0,0,0-1.11-2c-1.08-.67-3-.6-5.16.22a10.14,10.14,0,0,1-5.66.47A5,5,0,0,1,143.3,269.84Z"/><path class="cls-3" d="M147.69,282.32s-2.39,3.3-3.8,3.68c-2.78.76-8.51-1.87-14.07-5.87-8.35-6-6.87-17-6.26-19.56a7.84,7.84,0,0,1,2.15-3.85s1,1.87,5.46,2.26,6.39.76,6,3.82-.65,6,.58,7.38,5.14,3.48,6.62,5S149,280.11,147.69,282.32Z"/><path class="cls-8" d="M146.54,282.87a4.27,4.27,0,0,0,.38-3.54c-1-3.1-5.15-5.71-7.53-7-2.89-1.56-2.8-4.17-2.7-6.93a25.35,25.35,0,0,0,0-3.24c-.22-2.48-2.49-2.81-5.66-3a15.06,15.06,0,0,1-2.7-.32,6.93,6.93,0,0,1-4.2-3.68,5.4,5.4,0,0,1,.17-5.09,5.07,5.07,0,0,1,3.67-2.53c2.54-.43,5.84.65,8.84,2.9,4.62,3.47,7,11.71,6.41,15.58-.52,3.18,1.31,5.18,4.35,8.49l.72.79c3.7,4.07-.95,8.1-1,8.14l-2,1.67Zm-18.4-34.46a4.18,4.18,0,0,0-3.07,2.11,4.53,4.53,0,0,0-.14,4.31,5.93,5.93,0,0,0,3.57,3.16,14.5,14.5,0,0,0,2.52.29c2.78.17,6.24.39,6.56,3.85a26,26,0,0,1,0,3.35c-.09,2.69-.17,4.81,2.2,6.09s6.88,4.13,8,7.54a5.18,5.18,0,0,1,.26,2,4.07,4.07,0,0,0-.47-5.2l-.72-.79c-3.11-3.4-5.17-5.64-4.58-9.24s-1.75-11.49-6-14.71a16.81,16.81,0,0,0-2.11-1.36A9.71,9.71,0,0,0,128.14,248.41Z"/><path class="cls-4" d="M200.89,285.62c3.42-1.54,8.13-4.48,9.61-12.74A12.62,12.62,0,0,0,196.62,258c-8.77.94-9.24,6-18.15,6.66s-12.66,2-14.86,7.68.66,9.88,11.22,14.06A34.08,34.08,0,0,0,200.89,285.62Z"/><path class="cls-19" d="M200.89,285.62c3.42-1.54,8.13-4.48,9.61-12.74A12.62,12.62,0,0,0,196.62,258c-8.77.94-9.24,6-18.15,6.66s-12.66,2-14.86,7.68.66,9.88,11.22,14.06A34.08,34.08,0,0,0,200.89,285.62Z"/><ellipse class="cls-22" cx="200.62" cy="265.63" rx="4.71" ry="3.78" transform="translate(-51.42 48.18) rotate(-12.15)"/><path class="cls-4" d="M167.33,268.87s7.72.39,7.76-3.51-9.27-2.73-12.95.32-2.47,9.78-.46,12.8,10.49-2,3.77-6.74c0,0,4.11,3.42,5.94,1.83S170.32,269.28,167.33,268.87Z"/><path class="cls-15" d="M167.33,268.87s7.72.39,7.76-3.51-9.27-2.73-12.95.32-2.47,9.78-.46,12.8,10.49-2,3.77-6.74c0,0,4.11,3.42,5.94,1.83S170.32,269.28,167.33,268.87Z"/><path class="cls-4" d="M162.46,268.52s-5.69-1.76-5.62-5.84-5.2,1.51-2.54,4.14a11,11,0,0,0,7,3.35C162.53,270.14,163.43,269.39,162.46,268.52Z"/><path class="cls-15" d="M162.46,268.52s-5.69-1.76-5.62-5.84-5.2,1.51-2.54,4.14a11,11,0,0,0,7,3.35C162.53,270.14,163.43,269.39,162.46,268.52Z"/><path class="cls-23" d="M204.52,240.92c-.56,1.85-.3,3.42-6.06,7.11s-4.25,9.59.13,11.66c4.19,2,11.46-.27,15.39-3.36,5-3.95,8.38-9.11,8.46-13.41C222.56,235.55,209.1,225.77,204.52,240.92Z"/><line class="cls-16" x1="205.75" y1="237.81" x2="208.27" y2="242.85"/><line class="cls-16" x1="212.74" y1="239.85" x2="215.29" y2="244.96"/><line class="cls-16" x1="208.4" y1="250.53" x2="210.71" y2="255.15"/><line class="cls-16" x1="199.23" y1="251.44" x2="201.55" y2="256.08"/><path class="cls-23" d="M232.59,250.92c-.89-1.72-2.17-2.66-.62-9.32s-3.65-9.83-8.23-8.26c-4.38,1.51-8,8.19-8.67,13.15-.84,6.33.36,12.37,3.31,15.51C223.42,267.35,239.89,265,232.59,250.92Z"/><line class="cls-16" x1="233.89" y1="254" x2="228.57" y2="252.15"/><line class="cls-16" x1="227.45" y1="257.42" x2="222.06" y2="255.54"/><line class="cls-16" x1="223.11" y1="246.74" x2="218.23" y2="245.04"/><line class="cls-16" x1="229.04" y1="239.69" x2="224.14" y2="237.99"/><path class="cls-23" d="M189.7,261.74s.63,5,6.56,9.09,14.92,2.51,17.63-2.68-2.18-7.92-5-10.94-5-7-8.89-7.74C193.13,248.11,188.18,254.7,189.7,261.74Z"/><line class="cls-16" x1="199.83" y1="272.53" x2="202.06" y2="267.43"/><line class="cls-16" x1="196.87" y1="266.5" x2="200.08" y2="260.29"/><line class="cls-16" x1="208.6" y1="266.23" x2="210.34" y2="262.25"/><line class="cls-16" x1="206.4" y1="258.82" x2="207.67" y2="255.91"/><line class="cls-16" x1="192.23" y1="259.78" x2="194" y2="255.71"/><line class="cls-16" x1="198.48" y1="254.99" x2="200.05" y2="252.31"/><path class="cls-23" d="M210.25,244.58s-4.73,1.81-7.27,8.54,1.12,15.09,6.81,16.49,7.17-4,9.43-7.48,5.57-6.55,5.39-10.48C224.3,244.66,216.72,241.42,210.25,244.58Z"/><line class="cls-16" x1="202.18" y1="256.99" x2="207.67" y2="257.93"/><line class="cls-16" x1="210.39" y1="264.01" x2="214.67" y2="264.75"/><line class="cls-16" x1="217.06" y1="260.1" x2="220.19" y2="260.64"/><line class="cls-16" x1="212.76" y1="246.56" x2="217.13" y2="247.32"/><line class="cls-16" x1="218.89" y1="251.5" x2="221.87" y2="252.38"/><path class="cls-23" d="M236.17,266.76c-.89-1.72-2.17-2.66-.62-9.32s-3.65-9.83-8.23-8.26c-4.38,1.51-8,8.19-8.67,13.15-.84,6.33.36,12.37,3.31,15.51C227,283.2,243.47,280.8,236.17,266.76Z"/><line class="cls-16" x1="237.47" y1="269.84" x2="232.15" y2="267.99"/><line class="cls-16" x1="231.03" y1="273.26" x2="225.64" y2="271.39"/><line class="cls-16" x1="226.69" y1="262.58" x2="221.81" y2="260.89"/><line class="cls-16" x1="232.62" y1="255.54" x2="227.72" y2="253.83"/><path class="cls-23" d="M212.24,279.66s5-1,8.56-7.24,1.36-15.07-4-17.38-7.73,2.78-10.52,5.84-6.56,5.55-7,9.45C198.39,277.29,205.34,281.72,212.24,279.66Z"/><line class="cls-16" x1="222.23" y1="268.74" x2="216.97" y2="266.91"/><line class="cls-16" x1="213.22" y1="270.79" x2="206.78" y2="268.07"/><line class="cls-16" x1="215.27" y1="260.47" x2="211.17" y2="259.04"/><line class="cls-16" x1="208.05" y1="263.24" x2="205.06" y2="262.19"/><line class="cls-16" x1="210.09" y1="277.3" x2="205.9" y2="275.84"/><line class="cls-16" x1="204.84" y1="271.43" x2="202.05" y2="270.07"/><path class="cls-24" d="M229.29,229.72s10.56,5.78,10.68,15.8.47,15.61,3,21.7-.19,15.43-10.09,18-13.77-.71-22.12-2.08-19.29-4.23-23.13-9.68-9.39-17.07,1.59-24.91,14.42-15.85,17.78-19.29S222.63,225.68,229.29,229.72Z"/><path class="cls-24" d="M222.58,232.86s1.13-4.21,2.64-4.93c0,0,3.36,4.43,2.94,7.83"/><path class="cls-24" d="M217.37,229.37s2.81-1.9,7.84-1.45"/><ellipse class="cls-25" cx="225.58" cy="225.56" rx="2.35" ry="4.06" transform="translate(-61.57 364.53) rotate(-70.82)"/><path class="cls-24" d="M228.64,225.28s-4.25,2.21-6.56.64"/><path class="cls-24" d="M225.81,224.3c4-.09,15.41-5.6,13.48-8.72s-4.67.07-8.27-.7-3.11-2.9-6.53-2.08-4-3.78-7.51-4S219.3,224.44,225.81,224.3Z"/><path class="cls-8" d="M223.57,271.44s3.67,8.29,10.46,4.87C234,276.31,231.37,268,223.57,271.44Z"/><path class="cls-11" d="M220.76,272.61s4.94-1,7.13-7.47"/><path class="cls-4" d="M200.26,279.36s.8,5.86,8.92,7.6,13.69-1.65,14.26-6.67-1.77-4.81-2.21-8.84-.79-9.27-6.39-9.49-12.14,3.74-14.56,8.55S200.54,276.63,200.26,279.36Z"/><ellipse class="cls-4" cx="215.72" cy="280.74" rx="3.88" ry="3.45"/><g class="cls-26"><ellipse class="cls-10" cx="215.72" cy="280.74" rx="3.88" ry="3.45"/></g><circle class="cls-6" cx="213.34" cy="333.5" r="15.52"/><circle class="cls-3" cx="213.34" cy="333.5" r="8.85"/><circle class="cls-6" cx="113" cy="333.5" r="15.52"/><circle class="cls-3" cx="113" cy="333.5" r="8.85"/><path class="cls-6" d="M253.21,190.8c-3.06,34.88-6.36,69.75-9.19,104.65-.9,11-6.79,19.66-18.78,20-5.22.16-10.46,0-15.68,0H91.81a1.5,1.5,0,0,0,0,3H206.4c6.1,0,12.2.06,18.29,0,11.18-.1,21-7.67,22.06-19.2,1.59-16.58,2.85-33.21,4.31-49.8l5.15-58.69c.17-1.92-2.83-1.91-3,0Z"/><circle class="cls-6" cx="291.58" cy="130.81" r="6.14"/><path class="cls-6" d="M253.21,203.44,245,268.19c-.33,2.58-.46,5.28-1,7.84-1.65,8.2-10.72,10.83-18.07,10.9-7.13.07-14.26,0-21.39,0H94.69c-9.65,0-20.37-1.86-21.76-13.19-2.81-23.06-5.75-46.11-8.63-69.16l-1.5,1.5,65-.39,103.06-.61,23.87-.14a1.5,1.5,0,0,0,0-3l-65,.39-103.06.61-23.87.14a1.51,1.51,0,0,0-1.5,1.5l8.33,66.8c.46,3.7.54,7.48,2.8,10.63,4.16,5.79,11.7,7.78,18.46,7.92,7,.14,14,0,21,0H224.52c10.4,0,21.29-3.68,22.71-15.21,2.91-23.77,6-47.52,9-71.28C256.45,201.53,253.45,201.54,253.21,203.44Z"/><path class="cls-6" d="M253.49,215.26H64.28a1.13,1.13,0,0,0,0,2.25H253.49a1.13,1.13,0,0,0,0-2.25Z"/><path class="cls-6" d="M250.88,232.67H66.46a1.13,1.13,0,0,0,0,2.25H250.88a1.13,1.13,0,0,0,0-2.25Z"/><path class="cls-6" d="M248.69,250.09H68.63a1.13,1.13,0,0,0,0,2.25H248.69a1.13,1.13,0,0,0,0-2.25Z"/><path class="cls-6" d="M247.46,267.5H70.8a1.13,1.13,0,0,0,0,2.25H247.46a1.13,1.13,0,0,0,0-2.25Z"/><path class="cls-6" d="M228.84,203.57v84.36a1.13,1.13,0,0,0,2.25,0V203.57a1.13,1.13,0,0,0-2.25,0Z"/><path class="cls-6" d="M200.61,203.76v84.36a1.13,1.13,0,0,0,2.25,0V203.76a1.13,1.13,0,0,0-2.25,0Z"/><path class="cls-6" d="M172.38,204.07v84.36a1.13,1.13,0,0,0,2.25,0V204.07a1.13,1.13,0,0,0-2.25,0Z"/><path class="cls-6" d="M144.15,204.07v84.36a1.13,1.13,0,0,0,2.25,0V204.07a1.13,1.13,0,0,0-2.25,0Z"/><path class="cls-6" d="M115.92,205.21v83.22a1.13,1.13,0,0,0,2.25,0V205.21a1.13,1.13,0,0,0-2.25,0Z"/><path class="cls-6" d="M87.69,205.21v83.16a1.13,1.13,0,0,0,2.25,0V205.21a1.13,1.13,0,0,0-2.25,0Z"/><path class="cls-6" d="M256,191.55l36.87-60c1-1.65-1.58-3.16-2.59-1.51l-36.87,60c-1,1.65,1.58,3.16,2.59,1.51Z"/><polygon class="cls-13" points="54.83 227.73 39.25 240.15 46.69 252.54 63.77 240.38 54.83 227.73"/><line class="cls-14" x1="56.21" y1="229.69" x2="40.58" y2="242.74"/><line class="cls-14" x1="58.24" y1="232.58" x2="42.62" y2="245.64"/><line class="cls-14" x1="60.46" y1="235.07" x2="44.16" y2="247.91"/><line class="cls-14" x1="62.09" y1="237.64" x2="45.68" y2="250.59"/><polygon class="cls-1" points="1.46 234.92 33.45 272.03 54.68 252.29 38.51 235.88 29.47 242.74 1.46 234.92"/><line class="cls-11" x1="20.11" y1="237.82" x2="16.99" y2="244.49"/><line class="cls-11" x1="24.92" y1="239.63" x2="21.8" y2="246.3"/><path class="cls-11" d="M27.9,241.56s-4.36-12.9-.29-13.67C34.15,226.66,27.9,241.56,27.9,241.56Z"/><line class="cls-11" x1="35.28" y1="231.48" x2="27.95" y2="241.96"/><circle class="cls-4" cx="36.04" cy="251.97" r="5.91" transform="translate(-158.09 87.34) rotate(-41.56)"/><path class="cls-4" d="M119.26,207.48l-52,43.38L38.94,218.61s68.56-48.69,82.91-50.49c3.95-.5,10.83,2.64,19.18,8.39l-2.38,12.22Z"/><g class="cls-15"><path d="M119.26,207.48l-52,43.38L38.94,218.61s68.56-48.69,82.91-50.49c3.95-.5,10.83,2.64,19.18,8.39l-2.38,12.22Z"/></g><path class="cls-11" d="M128.7,198.72,117,209.53,67.27,250.85,38.94,218.61s69.75-48.69,82.91-50.49c3.94-.54,10.83,2.64,19.18,8.39,0,0,21,15.22,38.37,31.94"/><line class="cls-11" x1="75.93" y1="244.29" x2="47.75" y2="212.54"/><path class="cls-10" d="M227.15,233s-29.34,7.71-35.27,5.65c-5-1.73,9.6-3.61,9.6-3.61s-10.24,2.34-11.21.31,10.83-3.44,10.83-3.44-11.94,2-12.22.1,12-3.15,12-3.15-12.13,2.14-12.5,0,12.11-3.42,12.11-3.42-7.84-.16-7.41-1.87,16.33-.62,28.78-4.25S227.15,233,227.15,233Z"/><path class="cls-6" d="M199.87,228.63c-2.36.42-5.63,1.28-8.06.83-3.57-.67-2.08-1.88.5-2.56a44.13,44.13,0,0,1,7.75-1.14.38.38,0,0,0,0-.75,16.88,16.88,0,0,1-3.45-.23c-1.41-.37-2.72-.6-.51-1.75a7.84,7.84,0,0,1,2.52-.21c3.36-.27,6.74-.34,10.09-.67a113.53,113.53,0,0,0,16.25-3,.38.38,0,0,0-.2-.72,105.48,105.48,0,0,1-17,3.06c-3.42.27-6.86.39-10.29.68-1.59.14-4.08-.06-5,1.49a.39.39,0,0,0,.06.45c.81,1,1.74,1.08,3,1.31.62.11,5.55.24,4.07-.36-2.05-.82-8.18.94-10,1.91-1.07.58-2.11,1.23-1.33,2.48,1.47,2.37,9.73.28,11.73-.07.47-.08.27-.81-.2-.72Z"/><path class="cls-6" d="M200.35,231.62c-2.21.39-4.44.73-6.68.95-1,.1-2.74.48-3.76.09-2.91-1.1,3.16-2.43,3.79-2.49.48,0,.48-.8,0-.75-1.48.14-4.67.34-5.33,2.11-.4,1.06.55,1.68,1.47,1.88,1.93.41,4.24-.11,6.16-.36q2.29-.3,4.56-.7c.47-.08.27-.81-.2-.72Z"/><path class="cls-6" d="M200.06,234.93c-2.6.48-5.62,1.15-8.26.73-1.07-.17-1.81-.59-.6-1.34a11.91,11.91,0,0,1,4.09-1.2c.47-.09.27-.81-.2-.72-.75.14-6.91,1.22-5.13,3.33.86,1,3,.78,4.08.72a47.88,47.88,0,0,0,6.22-.8c.47-.09.27-.81-.2-.72Z"/><path class="cls-6" d="M195.3,235.61c-1.28.18-5.26.24-5,2.32.32,2.81,7.71,1.7,9,1.59a105.51,105.51,0,0,0,12.63-2.4c5.06-1.1,10.54-1.88,15.38-3.78.44-.17.25-.9-.2-.72-6.79,2.66-14.56,3.63-21.67,5.12A42.21,42.21,0,0,1,194.82,239c-.67,0-4.09-.07-3.81-1.38.19-.88,3.85-1.16,4.49-1.25.48-.07.27-.79-.2-.72Z"/><path class="cls-4" d="M215.65,181.88,216.93,156s56.93,24,55.63,56.24-46.42,22.18-46.42,22.18L222,218.1l16.58-8.79C228.29,187.4,215.65,181.88,215.65,181.88Z"/><path class="cls-27" d="M215.65,181.88,216.93,156s56.93,24,55.63,56.24-46.42,22.18-46.42,22.18L222,218.1l16.58-8.79C228.29,187.4,215.65,181.88,215.65,181.88Z"/><line class="cls-11" x1="222.02" y1="218.1" x2="246.02" y2="205.37"/><path class="cls-11" d="M238.6,209.31a179.38,179.38,0,0,0-11.2-17.63,81.94,81.94,0,0,0-5.76-6.75"/><circle class="cls-6" cx="228.65" cy="170.27" r="2.15"/><circle class="cls-6" cx="213.09" cy="175.79" r="2.15"/><circle class="cls-6" cx="216.62" cy="164.68" r="2.15"/><circle class="cls-6" cx="234.3" cy="186.37" r="2.15"/><circle class="cls-6" cx="240.76" cy="200.06" r="2.15"/><circle class="cls-6" cx="242.91" cy="177.21" r="2.15"/><circle class="cls-6" cx="247.22" cy="189.53" r="2.15"/><circle class="cls-6" cx="261.41" cy="193.94" r="2.15"/><circle class="cls-6" cx="253.34" cy="203.44" r="2.15"/><circle class="cls-6" cx="266.37" cy="209.82" r="2.15"/><circle class="cls-6" cx="256.63" cy="214.84" r="2.15"/><circle class="cls-6" cx="257.1" cy="227.74" r="2.15"/><circle class="cls-6" cx="246.62" cy="222.66" r="2.15"/><circle class="cls-6" cx="237.94" cy="214.58" r="2.15"/><circle class="cls-6" cx="231.32" cy="223.97" r="2.15"/><circle class="cls-6" cx="238.6" cy="230.9" r="2.15"/><circle class="cls-6" cx="224.43" cy="180.1" r="2.15"/><path class="cls-12" d="M234.06,235.58a70,70,0,0,1-7.93-1.15L222,218.1l7.12-3.77Z"/><line class="cls-11" x1="233.36" y1="232.57" x2="225.65" y2="232.52"/><line class="cls-11" x1="232.39" y1="228.35" x2="224.86" y2="229.36"/><line class="cls-11" x1="231.32" y1="223.74" x2="223.78" y2="225.15"/><line class="cls-11" x1="230.08" y1="218.38" x2="222.74" y2="220.94"/><path class="cls-6" d="M229.46,116.65s-5.9,4.75-12.56,4.17-11.6-3.67-11.17-11,10.78-10.1,16.11-8.31c0,0,.86-9.53,10.55-7.77,9,1.63,7.79,10.09,7.79,10.09s8.08-3.78,15.7,4.52,4,18.72,1.26,22.15c0,0,6.6,3.52,5.63,11.17s-4.81,10-12,10c0,0-4.87-.48-6.26-2,0,0,1.87,7.56-5.78,9-8.75,1.6-11.5-7.74-13.49-11.48s8.25-12.49,9.89-14.88C235.16,132.24,226.36,126.25,229.46,116.65Z"/><path class="cls-1" d="M240.21,131.41a6.26,6.26,0,0,0-3.83,0l1.17-3.57c1.85-5.66-.71-11.63-5.68-13.25l-7.48-2.44c-5-1.62-10.56,1.68-12.41,7.35l-3.79,11.6c-1.85,5.66.71,11.63,5.68,13.25l4.33,1.41-2,6.25a4.91,4.91,0,0,0,3.14,6.18l3,1a4.91,4.91,0,0,0,6.18-3.14l2.31-7.06.13-.39,2.31-7.06c0-.14.08-.29.11-.43a6.23,6.23,0,1,0,6.92-9.64Z"/><path class="cls-6" d="M235.31,137.19a2.93,2.93,0,0,1,4.25-2c.61.26,1.15-.64.53-.91-1.52-.64-3.18-.79-4.47.4a4.78,4.78,0,0,0-1.32,2.22.53.53,0,0,0,1,.28Z"/><circle class="cls-6" cx="224.02" cy="127.6" r="1.77" transform="translate(33.2 300.96) rotate(-71.92)"/><circle class="cls-6" cx="213.31" cy="123.83" r="1.51" transform="translate(29.4 288.17) rotate(-71.92)"/><circle class="cls-4" cx="225.35" cy="134.9" r="4.41" transform="translate(27.18 307.26) rotate(-71.92)"/><path class="cls-4" d="M210.86,126.77a3.36,3.36,0,0,0-.77-.15L208.67,131a9.4,9.4,0,0,0-.46,1.94,4,4,0,0,0,.57.24,3.36,3.36,0,0,0,2.08-6.38Z"/><polygon class="cls-4" points="218.94 124.07 217.27 130.46 214.87 127.66 218.94 124.07"/><path class="cls-6" d="M212.34,133.5a3.11,3.11,0,0,0,5.92,1.89c.17-.45-.55-.65-.72-.2a2.36,2.36,0,0,1-4.47-1.5.38.38,0,0,0-.72-.2Z"/><path class="cls-6" d="M216.91,120.82c-6.66-.58-11.6-3.67-11.17-11s10.78-10.1,16.11-8.31c0,0,.86-9.53,10.55-7.77,9,1.63,7.79,10.09,7.79,10.09l.21-.09-.21,1.38v26.3l-1.78-.26a6.07,6.07,0,0,0-3.15,1.27s-8.92-6.17-5.82-15.78C229.46,116.65,223.57,121.4,216.91,120.82Z"/><rect class="cls-4" x="217.69" y="145.78" width="9.02" height="18.51" rx="2.68" ry="2.68" transform="translate(4.04 315.72) rotate(-71.28)"/><rect class="cls-11" x="217.69" y="145.78" width="9.02" height="18.51" rx="2.68" ry="2.68" transform="translate(4.04 315.72) rotate(-71.28)"/><line class="cls-11" x1="217.33" y1="148.63" x2="214.53" y2="157.21"/><line class="cls-11" x1="220.44" y1="149.65" x2="217.64" y2="158.22"/><line class="cls-11" x1="223.56" y1="150.66" x2="220.76" y2="159.24"/><line class="cls-11" x1="226.67" y1="151.68" x2="223.87" y2="160.25"/><line class="cls-11" x1="229.78" y1="152.69" x2="226.98" y2="161.27"/></g></g></svg>